# xmcd
#
# Track frame offsets: 
#        150
#        23955
#        45790
#        66770
#        88514
#        107034
#        127550
#        144310
#
# Disc length: 2228 seconds
#
# Revision: 1
# Processed by: cddbd v1.5.2PL0 Copyright (c) Steve Scherf et al.
# Submitted via: ExactAudioCopy v0.99pb5
#
DISCID=5708b208
DTITLE=Guinn - Guinn
DYEAR=1986
DGENRE=R&B
TTITLE0=Dreamin'
TTITLE1=Open Your Door
TTITLE2=I Can't Live Without You
TTITLE3=Slow Down
TTITLE4=Sincerely
TTITLE5=Tell Me
TTITLE6=People Will Be People
TTITLE7=Give Everything You Got For Love
EXTD=
EXTT0=
EXTT1=
EXTT2=
EXTT3=
EXTT4=
EXTT5=
EXTT6=
EXTT7=
PLAYORDER=
